<mxfile host="app.diagrams.net" modified="2024-05-13T15:12:09.706Z" agent="Mozilla/5.0 (Windows NT 10.0; Win64; x64) AppleWebKit/537.36 (KHTML, like Gecko) Chrome/124.0.0.0 Safari/537.36 Edg/124.0.0.0" etag="SJfz_YU3WZCXYGEcjWn8" version="24.2.7" type="device">
  <diagram id="C5RBs43oDa-KdzZeNtuy" name="Page-1">
    <mxGraphModel dx="1195" dy="630" grid="0" gridSize="10" guides="1" tooltips="1" connect="1" arrows="1" fold="1" page="1" pageScale="1" pageWidth="827" pageHeight="1169" math="0" shadow="0">
      <root>
        <mxCell id="WIyWlLk6GJQsqaUBKTNV-0" />
        <mxCell id="WIyWlLk6GJQsqaUBKTNV-1" parent="WIyWlLk6GJQsqaUBKTNV-0" />
        <mxCell id="WIyWlLk6GJQsqaUBKTNV-3" value="Начало" style="rounded=1;whiteSpace=wrap;html=1;fontSize=12;glass=0;strokeWidth=1;shadow=0;" parent="WIyWlLk6GJQsqaUBKTNV-1" vertex="1">
          <mxGeometry x="160" y="80" width="147" height="40" as="geometry" />
        </mxCell>
        <mxCell id="za3xLyqI1pNUG1_gKH-S-4" value="Клонирование репозитория с иходным кодом фреймворка" style="rounded=0;whiteSpace=wrap;html=1;" vertex="1" parent="WIyWlLk6GJQsqaUBKTNV-1">
          <mxGeometry x="160" y="149" width="147" height="60" as="geometry" />
        </mxCell>
        <mxCell id="za3xLyqI1pNUG1_gKH-S-7" value="Внесение необходимых изменений в код фреймворка" style="rounded=0;whiteSpace=wrap;html=1;" vertex="1" parent="WIyWlLk6GJQsqaUBKTNV-1">
          <mxGeometry x="160" y="235" width="147" height="60" as="geometry" />
        </mxCell>
        <mxCell id="za3xLyqI1pNUG1_gKH-S-8" value="Создание Pull Request для применения изменений" style="rounded=0;whiteSpace=wrap;html=1;" vertex="1" parent="WIyWlLk6GJQsqaUBKTNV-1">
          <mxGeometry x="160" y="321" width="147" height="60" as="geometry" />
        </mxCell>
        <mxCell id="za3xLyqI1pNUG1_gKH-S-9" value="Конец" style="rounded=1;whiteSpace=wrap;html=1;fontSize=12;glass=0;strokeWidth=1;shadow=0;" vertex="1" parent="WIyWlLk6GJQsqaUBKTNV-1">
          <mxGeometry x="386" y="553" width="147" height="40" as="geometry" />
        </mxCell>
        <mxCell id="za3xLyqI1pNUG1_gKH-S-10" value="Произвести слияние изменений" style="rounded=0;whiteSpace=wrap;html=1;" vertex="1" parent="WIyWlLk6GJQsqaUBKTNV-1">
          <mxGeometry x="160" y="405" width="147" height="60" as="geometry" />
        </mxCell>
        <mxCell id="za3xLyqI1pNUG1_gKH-S-21" value="" style="edgeStyle=orthogonalEdgeStyle;rounded=0;orthogonalLoop=1;jettySize=auto;html=1;" edge="1" parent="WIyWlLk6GJQsqaUBKTNV-1" source="za3xLyqI1pNUG1_gKH-S-11" target="za3xLyqI1pNUG1_gKH-S-9">
          <mxGeometry relative="1" as="geometry" />
        </mxCell>
        <mxCell id="za3xLyqI1pNUG1_gKH-S-22" value="Нет" style="edgeLabel;html=1;align=center;verticalAlign=middle;resizable=0;points=[];" vertex="1" connectable="0" parent="za3xLyqI1pNUG1_gKH-S-21">
          <mxGeometry x="-0.5543" y="1" relative="1" as="geometry">
            <mxPoint x="-15" y="1" as="offset" />
          </mxGeometry>
        </mxCell>
        <mxCell id="za3xLyqI1pNUG1_gKH-S-11" value="&lt;font style=&quot;font-size: 10px;&quot;&gt;Произошел конфликт слияния?&lt;/font&gt;" style="rhombus;whiteSpace=wrap;html=1;" vertex="1" parent="WIyWlLk6GJQsqaUBKTNV-1">
          <mxGeometry x="385" y="402.5" width="148" height="65" as="geometry" />
        </mxCell>
        <mxCell id="za3xLyqI1pNUG1_gKH-S-12" value="" style="endArrow=classic;html=1;rounded=0;exitX=0.5;exitY=1;exitDx=0;exitDy=0;entryX=0.5;entryY=0;entryDx=0;entryDy=0;" edge="1" parent="WIyWlLk6GJQsqaUBKTNV-1" source="WIyWlLk6GJQsqaUBKTNV-3" target="za3xLyqI1pNUG1_gKH-S-4">
          <mxGeometry width="50" height="50" relative="1" as="geometry">
            <mxPoint x="292" y="329" as="sourcePoint" />
            <mxPoint x="342" y="279" as="targetPoint" />
          </mxGeometry>
        </mxCell>
        <mxCell id="za3xLyqI1pNUG1_gKH-S-13" value="" style="endArrow=classic;html=1;rounded=0;exitX=0.5;exitY=1;exitDx=0;exitDy=0;entryX=0.5;entryY=0;entryDx=0;entryDy=0;" edge="1" parent="WIyWlLk6GJQsqaUBKTNV-1" source="za3xLyqI1pNUG1_gKH-S-4" target="za3xLyqI1pNUG1_gKH-S-7">
          <mxGeometry width="50" height="50" relative="1" as="geometry">
            <mxPoint x="344" y="239" as="sourcePoint" />
            <mxPoint x="394" y="189" as="targetPoint" />
          </mxGeometry>
        </mxCell>
        <mxCell id="za3xLyqI1pNUG1_gKH-S-14" value="" style="endArrow=classic;html=1;rounded=0;exitX=0.5;exitY=1;exitDx=0;exitDy=0;entryX=0.5;entryY=0;entryDx=0;entryDy=0;" edge="1" parent="WIyWlLk6GJQsqaUBKTNV-1" source="za3xLyqI1pNUG1_gKH-S-7" target="za3xLyqI1pNUG1_gKH-S-8">
          <mxGeometry width="50" height="50" relative="1" as="geometry">
            <mxPoint x="323" y="310" as="sourcePoint" />
            <mxPoint x="373" y="260" as="targetPoint" />
          </mxGeometry>
        </mxCell>
        <mxCell id="za3xLyqI1pNUG1_gKH-S-15" value="" style="endArrow=classic;html=1;rounded=0;exitX=0.5;exitY=1;exitDx=0;exitDy=0;entryX=0.5;entryY=0;entryDx=0;entryDy=0;" edge="1" parent="WIyWlLk6GJQsqaUBKTNV-1" source="za3xLyqI1pNUG1_gKH-S-8" target="za3xLyqI1pNUG1_gKH-S-10">
          <mxGeometry width="50" height="50" relative="1" as="geometry">
            <mxPoint x="351" y="384" as="sourcePoint" />
            <mxPoint x="401" y="334" as="targetPoint" />
          </mxGeometry>
        </mxCell>
        <mxCell id="za3xLyqI1pNUG1_gKH-S-16" value="" style="endArrow=classic;html=1;rounded=0;exitX=1;exitY=0.5;exitDx=0;exitDy=0;entryX=0;entryY=0.5;entryDx=0;entryDy=0;" edge="1" parent="WIyWlLk6GJQsqaUBKTNV-1" source="za3xLyqI1pNUG1_gKH-S-10" target="za3xLyqI1pNUG1_gKH-S-11">
          <mxGeometry width="50" height="50" relative="1" as="geometry">
            <mxPoint x="292" y="329" as="sourcePoint" />
            <mxPoint x="342" y="279" as="targetPoint" />
          </mxGeometry>
        </mxCell>
        <mxCell id="za3xLyqI1pNUG1_gKH-S-17" value="" style="endArrow=classic;html=1;rounded=0;exitX=1;exitY=0.5;exitDx=0;exitDy=0;" edge="1" parent="WIyWlLk6GJQsqaUBKTNV-1" source="za3xLyqI1pNUG1_gKH-S-11">
          <mxGeometry width="50" height="50" relative="1" as="geometry">
            <mxPoint x="561" y="467" as="sourcePoint" />
            <mxPoint x="593" y="435" as="targetPoint" />
          </mxGeometry>
        </mxCell>
        <mxCell id="za3xLyqI1pNUG1_gKH-S-18" value="Да" style="edgeLabel;html=1;align=center;verticalAlign=middle;resizable=0;points=[];" vertex="1" connectable="0" parent="za3xLyqI1pNUG1_gKH-S-17">
          <mxGeometry x="0.2611" y="-2" relative="1" as="geometry">
            <mxPoint x="-11" y="-11" as="offset" />
          </mxGeometry>
        </mxCell>
        <mxCell id="za3xLyqI1pNUG1_gKH-S-19" value="Добавить Code-review на конфликтирующий код" style="shape=process;whiteSpace=wrap;html=1;backgroundOutline=1;" vertex="1" parent="WIyWlLk6GJQsqaUBKTNV-1">
          <mxGeometry x="595" y="405" width="163" height="60" as="geometry" />
        </mxCell>
        <mxCell id="za3xLyqI1pNUG1_gKH-S-20" value="" style="endArrow=classic;html=1;rounded=0;exitX=0.5;exitY=1;exitDx=0;exitDy=0;" edge="1" parent="WIyWlLk6GJQsqaUBKTNV-1" source="za3xLyqI1pNUG1_gKH-S-19">
          <mxGeometry width="50" height="50" relative="1" as="geometry">
            <mxPoint x="629" y="539" as="sourcePoint" />
            <mxPoint x="458" y="514" as="targetPoint" />
            <Array as="points">
              <mxPoint x="677" y="514" />
            </Array>
          </mxGeometry>
        </mxCell>
      </root>
    </mxGraphModel>
  </diagram>
</mxfile>
